<?xml version="1.0" encoding="iso-8859-1"?>
<!-- Uploaded to: SVG Repo, www.svgrepo.com, Generator: SVG Repo Mixer Tools -->
<svg fill="#000000" version="1.1" id="Layer_1" xmlns="http://www.w3.org/2000/svg" xmlns:xlink="http://www.w3.org/1999/xlink" 
	 viewBox="0 0 204.555 204.555" xml:space="preserve">
<g>
	<g>
		<g>
			<path d="M31.834,108.096c-9.156,0-16.06,3.296-16.216,7.68c-0.012,0-0.02-0.032-0.028-0.024v43.156
				c0,4.424,8.172,6.744,16.248,6.744s16.248-2.316,16.248-6.744v-42.664c-0.024,0.036-0.056,0.06-0.08,0.096
				c0.016-0.14,0.08-0.272,0.08-0.416C48.078,111.463,41.094,108.096,31.834,108.096z M31.834,110.932
				c8.312,0,13.412,2.908,13.412,4.992c0,2.084-5.104,4.992-13.412,4.992c-8.308,0-13.412-2.908-13.412-4.992
				C18.422,113.84,23.522,110.932,31.834,110.932z M45.258,123.903h-0.016c-1.892,2.86-5.424,3.908-8.296,4.252
				c-0.312,0.036-0.532,0.32-0.496,0.628c0.032,0.288,0.28,0.5,0.564,0.5c0.02,0,0.044,0,0.068-0.004
				c2.708-0.32,5.96-1.24,8.164-3.548v5.504c-1.892,2.86-5.424,3.908-8.296,4.252c-0.312,0.036-0.532,0.32-0.496,0.628
				c0.032,0.288,0.28,0.5,0.564,0.5c0.02,0,0.044,0,0.068-0.004c2.708-0.32,5.96-1.24,8.164-3.548v5.504
				c-1.892,2.86-5.424,3.908-8.296,4.252c-0.312,0.036-0.532,0.32-0.496,0.628c0.032,0.288,0.28,0.5,0.564,0.5
				c0.02,0,0.044,0,0.068-0.004c2.708-0.32,5.96-1.24,8.164-3.548v5.5c-1.892,2.86-5.424,3.912-8.296,4.256
				c-0.312,0.036-0.532,0.32-0.496,0.628c0.032,0.288,0.28,0.5,0.564,0.5c0.02,0,0.044,0,0.068-0.004
				c2.708-0.32,5.96-1.24,8.164-3.548v5.5c-1.892,2.856-5.424,3.912-8.296,4.256c-0.312,0.036-0.532,0.32-0.496,0.628
				c0.032,0.288,0.28,0.5,0.564,0.5c0.02,0,0.044,0,0.068-0.004c2.708-0.324,5.96-1.244,8.16-3.552v3.848
				c0,1.324-4.732,3.908-13.412,3.908s-13.412-2.584-13.412-3.908v-38.464c2.876,2.024,7.704,3.308,13.412,3.308
				s10.532-1.284,13.412-3.308V123.903z"/>
			<path d="M83.426,149.523V106.86c-0.024,0.028-0.052,0.056-0.08,0.084c0.012-0.136,0.08-0.26,0.08-0.4
				c0-4.46-6.984-7.828-16.248-7.828c-9.068,0-15.908,3.236-16.196,7.556c-0.008-0.028-0.032-0.064-0.036-0.092v0.284
				c0,0.028-0.016,0.052-0.016,0.08c0,0.028,0.016,0.052,0.016,0.08l-0.016,42.9c0,4.428,8.172,6.748,16.248,6.748
				C75.25,156.272,83.426,153.955,83.426,149.523z M67.178,101.551c8.308,0,13.412,2.908,13.412,4.992
				c0,2.084-5.104,4.992-13.412,4.992c-8.312,0-13.412-2.908-13.412-4.992C53.766,104.46,58.866,101.551,67.178,101.551z
				 M80.606,114.52H80.59c-1.896,2.86-5.428,3.916-8.3,4.26c-0.312,0.036-0.532,0.32-0.496,0.628c0.032,0.288,0.28,0.5,0.564,0.5
				c0.02,0,0.044,0,0.068-0.004c2.708-0.324,5.96-1.244,8.164-3.552v5.5c-1.896,2.86-5.428,3.908-8.296,4.252
				c-0.312,0.036-0.532,0.32-0.496,0.628c0.032,0.288,0.28,0.5,0.564,0.5c0.02,0,0.044,0,0.068-0.004
				c2.708-0.32,5.964-1.24,8.164-3.548v5.504c-1.896,2.86-5.428,3.908-8.296,4.252c-0.312,0.036-0.532,0.32-0.496,0.628
				c0.032,0.288,0.28,0.5,0.564,0.5c0.02,0,0.044,0,0.068-0.004c2.708-0.32,5.964-1.24,8.164-3.548v5.504
				c-1.896,2.86-5.428,3.908-8.296,4.252c-0.312,0.036-0.532,0.32-0.496,0.628c0.032,0.288,0.28,0.5,0.564,0.5
				c0.02,0,0.044,0,0.068-0.004c2.708-0.32,5.964-1.24,8.164-3.548v5.504c-1.896,2.86-5.428,3.908-8.296,4.252
				c-0.312,0.036-0.532,0.32-0.496,0.628c0.032,0.288,0.28,0.5,0.564,0.5c0.02,0,0.044,0,0.068-0.004
				c2.708-0.32,5.964-1.24,8.164-3.548v3.844c0,1.328-4.732,3.912-13.412,3.912c-8.68,0-13.412-2.584-13.412-3.912v-38.464
				c2.876,2.024,7.704,3.312,13.412,3.312s10.532-1.284,13.412-3.308V114.52z"/>
			<path d="M189.594,142.78c0.724-1.112,1.356-2.332,1.38-3.228l-0.14-0.74l-0.416-0.676l-5.328-4.824
				c0.808-2.48,1.128-5.116,0.828-7.796c-0.556-4.92-2.98-9.324-6.828-12.396c0,0-62.468-49.836-63.092-50.336
				c-0.648-0.516-1.392-0.844-2.188-1.052l-0.04-0.032l-0.008,0.016c-2.328-0.592-5.204,0.056-8.216,1.736L29.138,2.496
				c-2.384-1.904-5.38-2.776-8.428-2.416c-3.048,0.344-5.776,1.844-7.676,4.232c-1.904,2.384-2.764,5.376-2.42,8.424
				c0.34,3.052,1.844,5.776,4.228,7.68l55.404,44.2L8.606,22.968l-1.94,2.876c-0.892,1.32-1.26,2.896-1.036,4.428
				c0.232,1.584,1.06,2.924,2.332,3.784l81.416,55.012c-0.512,0.832-0.876,1.744-0.9,2.752c-0.032,1.496,0.516,2.912,1.548,3.984
				l25.66,26.78c1.096,1.144,2.564,1.72,4.036,1.72c1.392,0,2.788-0.516,3.868-1.552c0.936-0.9,1.08-2.324,0.344-3.388l-4.456-6.476
				l36.54,29.156c3.296,2.628,7.308,4.024,11.484,4.024c0.704,0,1.412-0.04,2.12-0.116c2.072-0.232,4.016-0.868,5.84-1.728
				l5.508,4.988l1.072,0.4l0.432-0.004c1.46-0.24,3.5-2.312,4.672-3.636c5.256,5.12,7.848,9.916,7.84,14.624
				c-0.008,4.736-2.732,9.608-8.084,14.48c-7.384,6.728-21.76,0.392-35.668-5.728c-10.876-4.78-21.14-9.296-28.464-7.704
				c-8.708,1.9-14.104,7.344-17.048,13.504c-1.956-1.868-4.324-3.272-7.028-3.972c-4.156-1.064-8.468-0.464-12.148,1.7l-6.872,4.052
				l3.308,5.612l-7.672,4.52c-1.856,1.096-2.48,3.504-1.384,5.372c0.732,1.236,2.04,1.92,3.38,1.92c0.676,0,1.36-0.172,1.984-0.54
				l7.672-4.524l1.712,2.908l-7.672,4.524c-1.86,1.096-2.48,3.504-1.384,5.36c0.528,0.9,1.38,1.54,2.396,1.804
				c0.328,0.084,0.66,0.124,0.992,0.124c0.688,0,1.368-0.184,1.98-0.54l7.668-4.532l3.312,5.62l6.872-4.056
				c7.564-4.456,10.108-14.204,5.744-21.792c2.256-5.908,6.932-11.38,15.044-13.152c6.056-1.32,16.192,3.144,26,7.46
				c15.076,6.628,30.664,13.492,39.968,5.024c6.224-5.66,9.384-11.528,9.396-17.432C198.994,154.648,195.898,148.812,189.594,142.78
				z M111.906,65.455c0.672,0,1.216,0.156,1.592,0.456c1.904,1.52,1.12,7.952-4.484,14.976c-2.424,3.036-4.924,5.112-7.152,6.428
				L99.47,83.84c2.6-1.792,4.928-3.788,6.76-6.084c1.94-2.432,3.524-5.196,4.7-8.208l0.536-1.372l-2.508-2
				C110.086,65.712,111.098,65.455,111.906,65.455z M17.334,17.288c-3.216-2.568-3.748-7.272-1.18-10.488
				c1.236-1.548,3.012-2.524,5-2.752c0.288-0.032,0.576-0.048,0.86-0.048c1.684,0,3.3,0.56,4.624,1.616l80,63.828
				c-0.952,2.112-2.136,4.068-3.536,5.82c-1.66,2.076-3.716,3.94-6.124,5.56L17.334,17.288z M9.546,31.7
				c-0.604-0.408-1-1.064-1.116-1.848c-0.12-0.832,0.084-1.696,0.58-2.428L9.366,26.9l84.932,57.064L91.234,86.9L9.546,31.7z
				 M121.622,120.704c-1.092,1.056-2.844,1.016-3.896-0.084l-25.66-26.78c-0.504-0.528-0.776-1.228-0.76-1.964
				c0.016-0.736,0.316-1.424,0.84-1.928l4.552-4.228l0.356-0.356L121.622,120.704z M176.218,139.14
				c-2.04,1.528-4.432,2.54-7.048,2.832c-3.856,0.42-7.648-0.648-10.66-3.056l-46.852-37.376l-7.516-10.916
				c2.708-1.652,5.476-4.076,8.004-7.24c3.768-4.72,5.856-9.612,6.188-13.612l58.264,46.48c3.012,2.408,4.912,5.856,5.348,9.72
				c0.324,2.892-0.204,5.74-1.5,8.256c-0.844,0.788-1.696,1.708-2.42,2.572C177.254,137.704,176.694,138.455,176.218,139.14z
				 M185.482,143.551c-1.488,1.768-2.664,2.748-3.144,3.076l-4.308-3.9c1.468-1.016,2.844-2.176,3.984-3.608
				c0.756-0.944,1.404-1.952,1.952-3.004l4.064,3.68C187.75,140.439,186.978,141.78,185.482,143.551z M77.846,191.356
				c-0.508,0.316-1.176,0.132-1.48-0.38c-0.304-0.516-0.132-1.184,0.38-1.484l7.288-4.296c0.352,0.564,0.776,1.284,1.096,1.864
				L77.846,191.356z M83.542,201.012c-0.248,0.144-0.54,0.188-0.82,0.112c-0.28-0.076-0.516-0.248-0.664-0.5
				c-0.148-0.244-0.184-0.536-0.112-0.816c0.072-0.28,0.248-0.516,0.496-0.66l7.288-4.296c0.352,0.564,0.78,1.284,1.1,1.864
				L83.542,201.012z M101.102,197.559l-3.94,2.328L84.33,178.124l3.944-2.324c2.896-1.704,6.284-2.192,9.572-1.332
				c3.276,0.844,6.024,2.904,7.728,5.796C109.11,186.264,107.106,194.02,101.102,197.559z"/>
			<path d="M127.442,87.736c-1.364-1.088-3.056-1.584-4.8-1.388c-1.732,0.196-3.284,1.056-4.372,2.416
				c-2.244,2.808-1.784,6.92,1.032,9.172c1.2,0.956,2.636,1.416,4.064,1.416c1.92,0,3.824-0.84,5.108-2.452
				c1.088-1.364,1.58-3.068,1.384-4.8C129.662,90.372,128.806,88.824,127.442,87.736z M126.258,95.14
				c-1.268,1.584-3.604,1.848-5.188,0.584c-1.592-1.272-1.852-3.6-0.584-5.192c0.616-0.768,1.496-1.256,2.476-1.368
				c0.14-0.016,0.28-0.024,0.42-0.024c0.832,0,1.632,0.28,2.292,0.804v0.004c0.772,0.612,1.256,1.492,1.368,2.468
				C127.15,93.4,126.874,94.364,126.258,95.14z"/>
			<rect x="58.144" y="40.899" transform="matrix(-0.7817 -0.6237 0.6237 -0.7817 88.837 115.7318)" width="13.06" height="2.836"/>
			
				<rect x="19.985" y="20.569" transform="matrix(-0.7817 -0.6236 0.6236 -0.7817 56.0832 63.6038)" width="38.375" height="2.836"/>
		</g>
	</g>
</g>
</svg>