<?xml version="1.0" encoding="iso-8859-1"?>
<!-- Uploaded to: SVG Repo, www.svgrepo.com, Generator: SVG Repo Mixer Tools -->
<svg fill="#000000" height="800px" width="800px" version="1.1" id="Layer_1" xmlns="http://www.w3.org/2000/svg" xmlns:xlink="http://www.w3.org/1999/xlink" 
	 viewBox="0 0 217.656 217.656" xml:space="preserve">
<g>
	<g>
		<g>
			<path d="M123.988,73.708c0-30.344-24.688-55.036-55.036-55.036c-30.348,0-55.036,24.688-55.036,55.036
				c0,30.348,24.688,55.036,55.036,55.036C99.3,128.744,123.988,104.056,123.988,73.708z M16.184,73.708
				c0-29.096,23.668-52.764,52.764-52.764c29.096,0,52.764,23.668,52.764,52.764s-23.664,52.768-52.76,52.768
				C39.856,126.476,16.184,102.804,16.184,73.708z"/>
			<path d="M25.6,73.708h2.268c0-14.484,6.476-28.012,17.764-37.112l-1.42-1.764C32.384,44.364,25.6,58.536,25.6,73.708z"/>
			<path d="M166.02,141.58c-15.86-4.68-31.744-5.928-44.708-3.512c-8.46,1.576-15.076,4.608-19.464,8.8
				c-2.236-0.368-4.492-0.724-6.824-1.016c0.928-1.124,1.512-2.544,1.512-4.112c0-3.272-2.44-5.956-5.592-6.396
				c25.324-9.068,43.528-33.236,43.528-61.64c0-36.128-29.392-65.52-65.52-65.52S3.436,37.576,3.436,73.704
				c0,28.404,18.2,52.572,43.524,61.64c-3.152,0.44-5.592,3.124-5.592,6.396c0,1.564,0.58,2.984,1.508,4.104
				C19.328,148.776,0,155.724,0,166.264c0,0.4,0.128,0.776,0.184,1.164c-0.056-0.088-0.128-0.164-0.184-0.252v19.116
				c0,14.3,35.528,22.012,68.956,22.012c23.128,0,47.228-3.704,59.904-10.716c5.656,2.76,11.856,5.2,18.524,7.168
				c10.58,3.12,21.16,4.716,30.884,4.716c4.86,0,9.504-0.4,13.828-1.204c13.436-2.5,22.244-8.664,24.804-17.344
				C222.12,173.216,199.776,151.54,166.02,141.58z M191.232,156.972l-46.712,30.372c-0.268-0.1-0.532-0.2-0.796-0.304l-0.82-17.828
				l6.852-4.456l0.584,12.632l2.264-0.104l-0.644-13.96l6.552-4.26l0.332,7.256l2.264-0.1l-0.392-8.588l13.752-8.944
				C180.612,151.092,186.264,153.892,191.232,156.972z M99.688,173.488c-7.968,1.392-18.344,2.348-30.74,2.348
				c-30.072,0-48.536-5.572-48.536-9.568c0-3.996,18.464-9.568,48.536-9.568c10.56,0,19.556,0.716,26.952,1.78
				C95.328,163.368,96.708,168.468,99.688,173.488z M92.568,141.744c0,1.388-1.128,2.516-2.516,2.516H67.944l5.308-5.032h16.8
				C91.436,139.228,92.568,140.356,92.568,141.744z M7.404,73.708c0-33.94,27.612-61.552,61.548-61.552
				c33.94,0,61.552,27.612,61.552,61.552c0,33.936-27.612,61.548-61.552,61.548C35.016,135.26,7.404,107.648,7.404,73.708z
				 M47.852,139.228H69.96l-5.308,5.032h-16.8c-1.388,0-2.516-1.128-2.516-2.516S46.464,139.228,47.852,139.228z M68.952,148.228
				c11.12,0,21.192,0.832,29.984,2.176c-1.044,1.568-1.904,3.22-2.432,5.012c-0.084,0.28-0.1,0.572-0.168,0.856
				c-8.34-1.188-17.932-1.836-27.388-1.836c-24.628,0-50.804,4.148-50.804,11.836s26.176,11.836,50.804,11.836
				c11.26,0,22.788-0.884,32.044-2.56c1.264,1.848,2.76,3.668,4.44,5.464c-10.144,2.02-22.52,3.304-36.484,3.304
				c-38.296,0-64.988-9.508-64.988-18.044S30.656,148.228,68.952,148.228z M68.952,204.344c-38.296,0-64.988-9.508-64.988-18.044
				V174c10.128,9.32,38.208,14.284,64.988,14.284c13.844,0,28.016-1.34,39.908-3.908c4.304,3.912,9.508,7.62,15.528,10.928
				C113.388,200.392,93.612,204.344,68.952,204.344z M213.092,189.808c-2.116,7.176-9.832,12.348-21.728,14.568
				c-12.364,2.304-27.584,1.092-42.86-3.416c-31.092-9.172-52.712-29.1-48.192-44.424c1.712-5.804,7.136-10.264,15.416-12.94
				c-3.772,2.332-6.328,5.344-7.392,8.948c-0.176,0.6,0.168,1.232,0.768,1.408c0.608,0.172,1.232-0.168,1.408-0.768
				c1.748-5.928,8.292-10.128,18.424-11.824c0.992-0.168,2.028-0.284,3.064-0.4c1.052-0.04,2.076-0.132,3.156-0.132
				c9.332,0,19.528,1.54,29.748,4.556c2.376,0.7,4.68,1.484,6.936,2.304l-46.032,29.932c-0.492-0.344-1.044-0.656-1.52-1.008
				c-0.636-0.468-1.52-0.332-1.984,0.3c-0.464,0.628-0.332,1.516,0.3,1.984c7.736,5.716,17.556,10.428,28.392,13.624
				c9.176,2.708,18.452,4.096,26.84,4.096c4.684,0,9.096-0.432,13.06-1.312c0.764-0.168,1.248-0.924,1.076-1.688
				c-0.168-0.764-0.912-1.236-1.688-1.076c-10.604,2.344-24.628,1.348-38.488-2.736c-1.552-0.46-3.032-1.012-4.54-1.532
				l46.052-29.944c0.368,0.244,0.752,0.48,1.112,0.728c9.18,7.248,13.98,15.44,11.924,22.404c-0.176,0.6,0.168,1.232,0.768,1.408
				c0.108,0.032,0.216,0.048,0.32,0.048c0.492,0,0.94-0.32,1.088-0.816c1.132-3.844,0.396-8.004-1.78-12.18
				C212.4,176.624,214.924,183.596,213.092,189.808z M141.404,186.048c-4.916-2.048-9.456-4.416-13.536-7.064l12.828-8.34
				L141.404,186.048z"/>
		</g>
	</g>
</g>
</svg>