<?xml version="1.0" encoding="iso-8859-1"?>
<!-- Uploaded to: SVG Repo, www.svgrepo.com, Generator: SVG Repo Mixer Tools -->
<svg fill="#000000" version="1.1" id="Layer_1" xmlns="http://www.w3.org/2000/svg" xmlns:xlink="http://www.w3.org/1999/xlink" 
	 viewBox="0 0 244.964 244.964" xml:space="preserve">
<g>
	<g>
		<g>
			<path d="M59.703,131.804c0.004,0,11.688-2.48,17.5-3.628c3.46-0.684,5.416-3.588,5.1-7.584c-0.308-3.948-2.672-6.184-6.38-6.08
				c-3.108,0.02-6.232,0.02-9.324,0.016l-4.188,0.012c-3.568,0.016-7.128,0.032-10.692-0.096c-2.248-0.084-3.472-1.564-3.444-4.168
				c0.028-2.392,1.16-3.672,3.364-3.808c1.084-0.068,2.172-0.076,3.26-0.076l6.796,0.004c4.468,0.004,8.936,0.008,13.4-0.032
				c2.508-0.024,4.4-0.704,5.628-2.02c1.16-1.244,1.684-2.988,1.556-5.192c-0.388-6.588-5.496-6.592-7.236-6.556
				c-6.964,0.044-13.94,0.024-20.916,0.004c-5.156-0.02-5.916-1.912-5.964-3.956c-0.028-1.108,0.264-1.96,0.896-2.604
				c0.976-1.004,2.788-1.54,5.244-1.544l4.68-0.008c5.796-0.012,11.592-0.024,17.384-0.068c3.636-0.028,5.856-2.524,5.932-6.676
				c0.08-3.732-1.852-6.204-5.28-6.78c-1.136-0.192-2.264-0.196-3.316-0.18l-7.732-0.012c-4.624,0-9.248-0.004-13.872-0.076
				c-2.66-0.04-3.884-1.324-3.844-4.044c0.036-2.48,1.176-3.596,3.804-3.732c0.872-0.044,1.744-0.044,2.904-0.048l4.668-0.004
				c4.924,0.004,9.848-0.008,14.76,0.012c2.392,0.004,7.496,0.024,7.904-6.772c0.124-2.148-0.356-3.772-1.468-4.96
				c-1.28-1.372-3.256-2.02-6.22-2.044c-2.956-0.02-5.916-0.02-8.876-0.012c-2.392,0.004-4.796,0.012-7.204-0.004h-1.408
				c-1.972,0-3.976,0.004-5.912-0.176c-2.488-0.232-2.928-2.58-2.972-3.96c-0.044-1.36,0.244-3.248,3.168-3.956
				c0.432-0.104,0.992-0.08,1.596-0.044c0.328,0.016,0.58-0.008,0.992,0.032l5.884-0.016c5.384-0.016,10.776-0.036,16.164-0.016
				c0.008,0,0.016,0,0.024,0c3.84,0,6.108-2.492,6.224-6.832c0.104-3.864-1.944-6.4-5.628-6.968c-0.86-0.132-1.74-0.132-2.612-0.12
				l-0.624,0.004c-1.972,0-3.948,0.008-5.92,0.02c-4.916,0.024-9.988,0.06-14.94-0.148c-1.28-0.052-3.104-0.772-3.82-1.836
				c-0.768-1.156-0.836-2.524-0.188-3.764c0.704-1.344,2.06-2.168,3.62-2.192c6.856-0.124,14.208-0.124,23.124-0.012
				c5.524,0,6.816-3.412,6.972-6.344c0.16-3.02-0.804-6.808-6.312-7.72l-0.896-0.148C66.131,3.416,57.195,1.94,48.287,0.304
				c-5.324-0.972-10.528,0.404-14.708,3.872c-5.208,4.32-8.216,11.328-8.248,19.224c-0.044,9.94-0.032,19.884-0.024,29.824
				l0.012,13.248l-0.02,162.284c0,3.36,3.744,5.996,8.524,5.996h12.512l0.344-0.164c1.188-0.56,2.28-1.176,3.252-1.84
				c4.312-2.94,7.024-7.168,7.84-12.228c1.196-7.444-1.196-15.756-7.104-24.708c-3.228-4.888-5.332-10.2-6.432-16.244
				c-1.34-7.38-1.228-31.652,6.992-42.592C53.575,133.836,56.287,132.16,59.703,131.804z M48.511,134.912
				c-8.964,11.932-9.084,37.2-7.616,45.244c1.184,6.504,3.452,12.232,6.94,17.508c5.424,8.22,7.64,15.72,6.584,22.292
				c-0.672,4.172-2.824,7.524-6.396,9.96c-0.736,0.5-1.56,0.976-2.448,1.412h-0.072l4.656-7.836l-1.564-0.924l-5.204,8.76h-5.624
				l4.66-7.836l-1.564-0.924l-5.208,8.76h-1.824c-1.176,0-2.192-0.264-3.044-0.62l4.288-7.216l-1.564-0.924l-4.272,7.188
				c-0.32-0.332-0.532-0.68-0.532-1.02l0.02-162.284L28.719,53.2c-0.008-9.932-0.02-19.868,0.02-29.804
				c0.024-5.532,1.704-10.504,4.648-14.16v122.216h1.812V7.304c0.188-0.172,0.36-0.364,0.56-0.528
				c2.684-2.228,5.896-3.392,9.244-3.392c0.884,0,1.78,0.084,2.676,0.248c8.932,1.64,17.888,3.12,26.84,4.6l0.896,0.148
				c2.668,0.44,3.608,1.576,3.468,4.184c-0.128,2.396-1.084,3.204-3.536,3.124c-8.944-0.112-16.324-0.108-23.228,0.012
				c-2.78,0.052-5.3,1.588-6.576,4.016c-1.224,2.34-1.084,5.04,0.376,7.232c1.452,2.172,4.392,3.26,6.508,3.348
				c5.048,0.216,10.16,0.184,15.1,0.152c1.96-0.012,3.896-0.016,5.896-0.02l0.668-0.004c0.692,0,1.384-0.02,2.064,0.084
				c1.984,0.304,2.804,1.352,2.748,3.512c-0.084,3.088-1.404,3.52-2.82,3.52c-0.004,0-0.012,0-0.02,0
				c-5.388-0.012-10.788,0-16.184,0.016l-5.88,0.016c-0.112-0.02-0.54-0.012-0.816-0.028c-0.772-0.044-1.648-0.084-2.564,0.14
				c-3.784,0.912-5.888,3.596-5.768,7.364c0.124,4.128,2.444,6.904,6.052,7.24c2.096,0.196,4.216,0.176,6.236,0.192h1.388
				c2.404,0.008,4.812,0.008,7.224,0.004c2.948-0.004,5.9-0.008,8.848,0.012c1.908,0.012,3.172,0.34,3.756,0.968
				c0.444,0.472,0.624,1.268,0.556,2.436c-0.184,3.044-1.416,3.656-4.488,3.572c-4.924-0.016-9.848-0.012-14.78-0.008h-4.956
				c-0.924,0-1.856,0.004-2.78,0.052c-4.412,0.228-6.972,2.808-7.032,7.084c-0.068,4.552,2.688,7.424,7.188,7.496
				c4.64,0.072,9.28,0.072,13.92,0.076l7.032,0.012h0.716c0.936,0.004,1.84-0.016,2.74,0.136c1.168,0.196,2.5,0.752,2.448,3.356
				c-0.068,3.324-1.752,3.336-2.56,3.34c-5.784,0.044-11.58,0.056-17.368,0.068l-4.68,0.008c-3.436,0.008-6.02,0.876-7.672,2.576
				c-1.264,1.3-1.908,3.052-1.856,5.064c0.084,3.3,1.768,7.244,9.348,7.272c6.98,0.028,13.964,0.04,20.952-0.004
				c2.276-0.004,3.644,0.484,3.812,3.352c0.076,1.24-0.144,2.136-0.64,2.672c-0.572,0.608-1.636,0.924-3.176,0.936
				c-4.456,0.048-8.904,0.036-13.364,0.032l-6.804-0.004c-1.156,0-2.312,0.012-3.464,0.084c-4,0.244-6.512,2.988-6.556,7.164
				c-0.048,4.464,2.588,7.448,6.72,7.604c3.604,0.136,7.22,0.116,10.832,0.1l4.164-0.008c3.112,0,6.24,0,9.356-0.016
				c1.66,0.016,2.764,0.472,2.964,2.944c0.124,1.576-0.188,3.544-2.376,3.976c-5.78,1.144-17.364,3.6-17.364,3.608
				C55.003,128.876,51.415,131.048,48.511,134.912z"/>
			<rect x="33.383" y="137.3" width="1.812" height="21.64"/>
			<path d="M219.495,233.532c-0.34-1.444-1.152-2.584-1.872-3.596c-0.604-0.844-1.616-2.264-3.308-2.644
				c-1.892-0.432-3.46,0.608-4.716,1.436c-2.032,1.332-5.12,2.864-8.48,2.616c-2.544-0.184-5.032-1.384-7.344-2.66
				c-3.26-1.792-5.964-3.612-8.2-5.532c3.404-2.472,6.052-6.052,8.052-10.884c6.208-15.004,1.764-35.472-10.108-46.596
				c-6.876-6.44-16.168-8.004-23.696-3.968c-2.016,1.08-3.752,2.544-5.428,3.96c-0.656-3.64-1.296-7.28-1.936-10.92
				c-1.484-8.436-3.02-17.156-4.744-25.704c-0.156-0.776-0.32-1.548-0.476-2.32c24.452-79.38,24.304-99.296,23.104-104.16
				c-0.1-0.436-0.248-0.864-0.432-1.404l-1.528-4.632l-1.868,3.56c-0.056,0.108-0.972,3.176-2.412,8.088l-4.22-1.392
				c-0.912-0.296-1.856,0.192-2.148,1.084c-0.296,0.892,0.188,1.852,1.08,2.148l4.332,1.432c-0.472,1.608-0.988,3.372-1.528,5.228
				l-4.508-1.488c-0.908-0.296-1.856,0.192-2.148,1.084c-0.296,0.892,0.188,1.852,1.08,2.148l4.628,1.528
				c-0.56,1.924-1.144,3.928-1.748,6.008l-3.832-1.264c-0.916-0.296-1.856,0.192-2.148,1.084c-0.296,0.892,0.188,1.852,1.08,2.148
				l3.952,1.304c-0.436,1.508-0.884,3.048-1.336,4.604l-3.9-1.288c-0.908-0.3-1.856,0.192-2.148,1.084
				c-0.296,0.892,0.188,1.852,1.08,2.148l4.024,1.332c-0.528,1.824-1.06,3.664-1.592,5.512l-4.224-1.396
				c-0.904-0.296-1.856,0.192-2.148,1.084c-0.296,0.892,0.188,1.852,1.08,2.148l4.352,1.44c-0.512,1.772-1.016,3.536-1.524,5.296
				l-3.896-1.288c-0.904-0.292-1.856,0.192-2.148,1.084c-0.296,0.892,0.188,1.852,1.08,2.148l4.024,1.332
				c-0.616,2.144-1.22,4.256-1.812,6.324l-4.272-1.412c-0.912-0.296-1.856,0.192-2.148,1.084c-0.296,0.892,0.188,1.852,1.08,2.148
				l4.408,1.456c-0.656,2.3-1.284,4.516-1.884,6.628l-3.8-1.256c-0.912-0.292-1.856,0.192-2.148,1.084
				c-0.296,0.892,0.188,1.852,1.08,2.148l3.944,1.3c-1.028,3.644-1.928,6.86-2.652,9.5c-3.684-18.04-7.36-36.08-11.076-54.112
				l-5.352-25.984c-0.324-1.568-0.712-3.124-1.096-4.68l-1.148-4.7l-2.1,1.764c-0.208,0.172-0.584,0.496-3.288,7.072
				c-5.544,13.544,1.06,67.408,4.6,96.344l0.628,5.128c0.128,1.056,0.44,2.296,1.496,3.288c-1.996,5.512-4.228,11.592-6.476,17.708
				c-2.14,5.824-4.276,11.644-6.2,16.936c-3.044-4.184-6.284-6.616-10.24-7.744c-8.412-2.392-16.228-0.024-23.888,7.256
				c-4.472,4.248-7.816,9.556-10.224,16.216c-3.276,9.044-3.544,18.084-0.808,27.636c1.352,4.724,6.36,9.432,6.416,9.476
				c3.816,3.196,8.056,4.804,12.536,4.804c2.84,0,5.776-0.648,8.764-1.948c8.992-3.916,15.332-11.156,19.384-22.128
				c4.656-12.604,9.184-25.26,13.712-37.916l6.672-18.592c0.304-0.84,0.624-1.732,0.948-2.628
				c3.668,20.508,7.336,41.016,11.128,61.504c1.888,10.192,6.128,17.88,12.964,23.496c4.632,3.812,9.448,5.644,14.436,5.476
				c4.62,5.944,8.976,10.092,13.66,13.024c5.064,3.168,10.676,4.8,15.976,4.8c3.396,0,6.66-0.668,9.572-2.032
				C217.163,241.184,220.459,237.616,219.495,233.532z M167.331,29.08c-0.416,9.744-4.196,33.624-21.52,90.656
				c-0.612-3.012-1.236-6.02-1.848-9.032C144.795,107.296,161.255,49.928,167.331,29.08z M124.915,156.724
				c-4.524,12.644-9.048,25.288-13.696,37.88c-3.72,10.06-9.456,16.664-17.556,20.192c-6.532,2.844-12.5,2.052-17.724-2.316
				c-0.84-0.768-4.428-4.58-5.36-7.836c-2.532-8.84-2.292-17.196,0.732-25.544c2.228-6.156,5.292-11.032,9.372-14.912
				c6.808-6.468,13.368-8.512,20.612-6.452c3.944,1.124,6.984,3.848,10.16,9.112l1.848,3.056l1.212-3.36
				c2.108-5.852,4.572-12.56,7.044-19.3l5.944,2.248L124.915,156.724z M131.591,138.12l-3.472,9.672l-5.932-2.244
				c2.064-5.612,4.104-11.168,5.952-16.264c0.64,0.312,1.284,0.616,1.92,0.94c1.232,0.624,2.472,1.236,3.732,1.804
				C133.115,133.892,132.303,136.144,131.591,138.12z M138.531,132.968c-0.144-0.784-0.412-1.42-0.76-1.98
				c0.012-0.036,0.032-0.096,0.048-0.132l-0.156-0.056c-0.5-0.724-1.188-1.284-2.136-1.704c-1.336-0.584-2.632-1.248-3.932-1.904
				c-1.196-0.604-2.392-1.212-3.608-1.764c-0.584-0.264-0.832-0.48-0.964-1.556l-0.624-5.132
				c-3.256-26.588-10.04-81.916-4.832-94.64c0.212-0.516,0.48-1.16,0.768-1.828c0.136,0.588,0.264,1.176,0.392,1.764l5.348,25.988
				c5.472,26.556,10.944,53.112,16.308,79.688c1.04,5.144,1.996,10.34,2.928,15.516l-6.22,1.856
				C140.243,142.38,139.371,137.676,138.531,132.968z M212.031,239.832c-6.416,3.012-14.964,2.02-22.296-2.572
				c-4.512-2.824-8.744-6.928-13.316-12.924l-0.568-0.744l-0.932,0.08c-4.356,0.408-8.704-1.184-12.928-4.656
				c-6.188-5.084-10.04-12.112-11.776-21.488c-3.004-16.204-5.896-32.428-8.8-48.648l6.216-1.856c0.496,2.78,0.996,5.572,1.48,8.308
				c0.704,3.996,1.408,7.996,2.132,11.988c0.096,0.544,0.212,1.088,0.36,1.808l0.552,2.672l2.156-1.668
				c0.768-0.592,1.524-1.228,2.28-1.868c1.616-1.364,3.144-2.652,4.848-3.568c6.212-3.336,13.968-1.976,19.756,3.452
				c10.916,10.224,14.996,29.032,9.296,42.816c-2.068,4.98-4.852,8.404-8.52,10.464l-1.976,1.108l1.616,1.588
				c2.74,2.684,6.18,5.148,10.528,7.536c2.648,1.46,5.544,2.84,8.744,3.072c3.388,0.228,7.052-0.852,10.688-3.232
				c0.688-0.452,1.516-1.004,2.004-0.9c0.424,0.096,0.964,0.848,1.284,1.296c0.564,0.792,1.14,1.608,1.328,2.404
				C216.679,236.428,214.471,238.688,212.031,239.832z"/>
			<path d="M182.843,213.024c1.208-1.488,2.256-3.268,3.044-5.156c4.82-11.632,1.38-26.796-8.008-35.28
				c-4.792-4.332-10.76-4.984-15.584-1.692c-2.692,1.836-4.692,4.552-5.784,7.848c-6.088,18.372,6.44,34.376,10.192,36.808
				c2.34,1.516,4.724,2.264,7.016,2.264C177.091,217.816,180.271,216.196,182.843,213.024z M168.555,212.696
				c-2.864-1.856-14.296-16.34-8.816-32.88c0.86-2.584,2.408-4.696,4.48-6.112c1.452-0.996,3.036-1.488,4.648-1.488
				c2.276,0,4.608,0.976,6.732,2.892c8.372,7.564,11.44,21.088,7.148,31.456c-0.66,1.588-1.54,3.08-2.544,4.316
				C176.991,214.84,172.855,215.484,168.555,212.696z"/>
			<path d="M99.963,163.46c-3.052-1.164-6.532-0.88-10.076,0.808c-5.632,2.684-9.872,7.3-12.956,14.112
				c-4.016,8.88-4.344,16.916-0.996,24.568c2.144,4.904,5.916,7.496,10.584,7.496c1.872,0,3.884-0.416,5.996-1.264
				c4.852-1.956,10.892-9.204,12.752-13.14c4.388-9.252,4.9-17.576,1.564-25.456C105.343,167.064,102.967,164.6,99.963,163.46z
				 M102.203,194.58c-1.624,3.432-7.18,9.92-10.956,11.44c-3.976,1.6-9.32,2.132-12.192-4.436c-2.936-6.72-2.616-13.848,0.98-21.8
				c2.74-6.048,6.44-10.12,11.316-12.444c1.644-0.784,3.24-1.176,4.728-1.176c0.94,0,1.84,0.16,2.68,0.476
				c2.112,0.804,3.824,2.624,4.94,5.268C106.635,178.844,106.143,186.256,102.203,194.58z"/>
			<path d="M134.519,111.624c-2.832-0.372-5.372,1.648-5.724,4.456c-0.348,2.804,1.652,5.368,4.452,5.72
				c0.216,0.028,0.424,0.04,0.636,0.04c2.548,0,4.76-1.904,5.084-4.492C139.319,114.54,137.319,111.972,134.519,111.624z
				 M131.047,116.356c0.18-1.444,1.416-2.504,2.836-2.504c0.116,0,0.24,0.004,0.356,0.02c0.42,0.052,0.8,0.208,1.136,0.416
				l-4.124,3.432C131.087,117.292,130.987,116.84,131.047,116.356z M136.723,117.068c-0.2,1.56-1.668,2.68-3.192,2.48
				c-0.42-0.052-0.796-0.204-1.136-0.416l4.124-3.428C136.683,116.128,136.783,116.584,136.723,117.068z"/>
		</g>
	</g>
</g>
</svg>