<svg width="22" height="22" viewBox="0 0 22 22" fill="none" xmlns="http://www.w3.org/2000/svg">
<g id="Plus / 24 / Outline">
<path id="Vector" d="M17.4166 10.0834H11.9166V4.58341C11.9166 4.3403 11.82 4.10714 11.6481 3.93523C11.4762 3.76333 11.2431 3.66675 11 3.66675C10.7568 3.66675 10.5237 3.76333 10.3518 3.93523C10.1799 4.10714 10.0833 4.3403 10.0833 4.58341V10.0834H4.58329C4.34018 10.0834 4.10702 10.18 3.93511 10.3519C3.7632 10.5238 3.66663 10.757 3.66663 11.0001C3.66663 11.2432 3.7632 11.4764 3.93511 11.6483C4.10702 11.8202 4.34018 11.9167 4.58329 11.9167H10.0833V17.4167C10.0833 17.6599 10.1799 17.893 10.3518 18.0649C10.5237 18.2368 10.7568 18.3334 11 18.3334C11.2431 18.3334 11.4762 18.2368 11.6481 18.0649C11.82 17.893 11.9166 17.6599 11.9166 17.4167V11.9167H17.4166C17.6597 11.9167 17.8929 11.8202 18.0648 11.6483C18.2367 11.4764 18.3333 11.2432 18.3333 11.0001C18.3333 10.757 18.2367 10.5238 18.0648 10.3519C17.8929 10.18 17.6597 10.0834 17.4166 10.0834Z" fill="#FFF"/>
</g>
</svg>
